Coordinates
version=1
nRows=8
nColumns=36
inDegrees=yes

Units are S.I. units (second, meters, Newtons, ...)
If the header above contains a line with 'inDegrees', this indicates whether rotational values are in degrees (yes) or radians (no).

endheader
time	pelvis_tilt	pelvis_list	pelvis_rotation	pelvis_tx	pelvis_ty	pelvis_tz	hip_flexion_r	hip_adduction_r	hip_rotation_r	knee_angle_r	knee_angle_r_beta	ankle_angle_r	subtalar_angle_r	mtp_angle_r	hip_flexion_l	hip_adduction_l	hip_rotation_l	knee_angle_l	knee_angle_l_beta	ankle_angle_l	subtalar_angle_l	mtp_angle_l	lumbar_extension	lumbar_bending	lumbar_rotation	arm_flex_r	arm_add_r	arm_rot_r	elbow_flex_r	pro_sup_r	arm_flex_l	arm_add_l	arm_rot_l	elbow_flex_l	pro_sup_l
      2.95000000	     13.48478246	      4.66381392	     -1.60986280	      0.08432922	      0.93940540	      0.12785856	     -5.77188339	      3.60369666	     -4.94981831	     13.15938823	      0.22967465	      3.49562067	    -13.37166665	     -7.49999987	     22.99341771	      5.04677241	      2.31833033	      1.77924153	      0.03105362	    -12.33421438	     -0.77072842	     -7.49999987	    -24.41343828	      0.64188047	     -1.76345620	     44.73263189	      6.32017609	     36.82863327	    129.82508584	    101.77125018	     68.10938883	     12.87546703	     78.03892371	    121.84061337	     84.25605252
      2.96666670	     13.40677690	      4.60488654	     -1.52474784	      0.08218424	      0.93934713	      0.12842534	     -5.70920215	      3.72283146	     -4.96648174	     12.82166659	      0.22378030	      3.46479844	    -13.30521740	     -7.49999987	     23.17457401	      5.00655595	      2.49843015	      2.03994455	      0.03560375	    -12.42188716	     -0.85709091	     -7.49999987	    -24.48866325	      0.74041925	     -1.86452603	     44.84413883	      6.47043084	     36.04789176	    129.69855011	    101.39547421	     68.33867623	     12.88861878	     77.76413380	    121.74788319	     84.42435087
      2.98333330	     13.45047559	      4.57625547	     -1.45546759	      0.08079025	      0.93977701	      0.12942934	     -5.76972548	      3.82904683	     -4.93380320	     12.55638949	      0.21915034	      3.44458972	    -13.13972783	     -7.49999987	     23.19000132	      4.95612689	      2.77614676	      2.28585290	      0.03989566	    -12.62051924	     -0.80109115	     -7.49999987	    -24.74647711	      0.72596270	     -1.92175045	     45.14603484	      6.68658237	     35.74225185	    130.30632261	    101.29960921	     68.69126769	     12.89444775	     77.55061910	    121.69759708	     84.43850641
      3.00000000	     13.53009804	      4.57369284	     -1.43031352	      0.08013018	      0.93919378	      0.12908532	     -5.74389491	      3.85917620	     -5.01898827	     12.59143215	      0.21976195	      3.64584546	    -12.73066650	     -7.49999987	     23.08120524	      4.93535037	      2.85290914	      2.52520510	      0.04407314	    -12.71557183	     -0.66533481	     -7.49999987	    -25.04427469	      0.67703457	     -2.08821166	     45.28097856	      6.88480411	     35.32501863	    130.23840717	    101.22483398	     68.93997285	     12.82051140	     77.35419067	    121.65111323	     84.09463738
      3.01666670	     13.56110963	      4.59138300	     -1.48283912	      0.08067602	      0.93890796	      0.12913932	     -5.58124859	      3.83462989	     -4.89486003	     12.76869014	      0.22285568	      3.39359527	    -12.93966299	     -7.49999987	     22.92726045	      4.90697933	      2.81934590	      2.78663231	      0.04863591	    -12.67654045	     -0.95550660	     -7.49999987	    -25.26268760	      0.56012926	     -2.07163780	     45.27609151	      7.01704607	     35.45909819	    130.82785015	    101.55077548	     69.05936632	     12.80876241	     77.40860948	    121.55224841	     83.97535395
      3.03333330	     13.55390145	      4.52512044	     -1.44340149	      0.07993763	      0.93694370	      0.12959904	     -5.46955476	      3.91309137	     -5.11802185	     12.95930514	      0.22618254	      3.45990857	    -13.03785356	     -7.49999987	     22.88630657	      4.81856987	      2.95554169	      3.19128154	      0.05569837	    -12.31687272	     -1.47681493	     -7.49999987	    -25.38529419	      0.57311625	     -2.14907829	     45.28795302	      7.13939788	     35.29232103	    130.75991987	    100.39019642	     69.18662814	     12.72695907	     77.23481185	    121.48492307	     83.61508571
      3.05000000	     13.53307765	      4.46201987	     -1.33235930	      0.08069047	      0.93667682	      0.12996901	     -5.37015190	      4.01130278	     -5.23513898	     13.05073259	      0.22777825	      3.36312055	    -13.28971944	     -7.49999987	     22.74144476	      4.74025663	      2.89711785	      3.63347692	      0.06341614	    -11.96172342	     -1.63601511	     -7.49999987	    -25.40721521	      0.61761361	     -2.05089582	     45.26600482	      7.01791931	     35.47005195	    130.90098810	     98.58308625	     69.11362521	     12.91657789	     77.47819336	    121.81965709	     82.41826983
      3.06666670	     13.49738285	      4.48624521	     -1.28170259	      0.08192903	      0.93622731	      0.12984618	     -5.28648823	      3.99522186	     -5.41609523	     13.31326934	      0.23236038	      3.64351388	    -13.16446594	     -7.49999987	     22.62882974	      4.77185140	      3.08983242	      4.09435864	      0.07146004	    -11.65672305	     -1.92485411	     -7.49999987	    -25.32609295	      0.63357597	     -1.78172463	     45.31706312	      6.79006945	     35.32203271	    131.13292826	    101.57968396	     68.89775507	     13.16064301	     77.51994430	    122.01763286	     84.41090101
